<?xml version="1.0" encoding="utf-8"?>
<!DOCTYPE svg PUBLIC "-//W3C//DTD SVG 1.1//EN" "http://www.w3.org/Graphics/SVG/1.1/DTD/svg11.dtd">
<svg version="1.1" xmlns="http://www.w3.org/2000/svg" width="908px" height="1280px" viewBox="0 0 908 1280" preserveAspectRatio="xMidYMid meet">
 <g fill="#16ad6f">
  <path d="M269 1225.8 c-100.9 -28 -183.9 -51.4 -184.4 -51.9 l-0.9 -0.8 -5.8 -64.8 c-9.1 -101.8 -18.5 -207.8 -36.9 -413.8 -9.4 -105 -20.2 -226.2 -24 -269.3 -3.9 -43 -8.8 -98.4 -11 -123 -2.2 -24.6 -4 -46.2 -4 -47.9 l0 -3.3 452 0 452 0 0 2.8 c0 1.5 -1.8 22.7 -4 47.2 -2.2 24.5 -8.5 94.9 -14 156.5 -13.5 151.7 -14.6 164 -18 202 -1.6 18.2 -4.1 45.8 -5.5 61.5 -3.3 37.2 -10.8 120.8 -14.5 162.5 -1.6 18.2 -5.2 58.4 -8 89.5 -9.8 110.4 -14.1 157.8 -16 178.9 l-1.9 21.4 -0.8 0.7 c-0.4 0.4 -23.7 7.1 -51.8 14.8 -28 7.7 -111.2 30.8 -184.7 51.1 -73.5 20.4 -133.8 37.1 -134 37 -0.2 0 -82.9 -23 -183.8 -51.1z"/>
 </g>
 <g fill="#9adcc1">
  <path d="M454 1139.7 l0 -58.6 -1.7 -0.5 c-1 -0.3 -53.1 -14.7 -115.8 -32.1 -62.7 -17.4 -114.3 -32 -114.6 -32.3 -0.4 -0.4 -1 -2.7 -1.3 -5.2 -0.7 -5.2 -12.8 -139.1 -21.6 -240 -3.3 -38.2 -7 -79.4 -8 -91.5 -5.6 -62.4 -21 -237.8 -21 -238.6 l0 -0.9 141.8 -0.2 141.7 -0.3 0.5 -56.5 0.5 -56.5 184.5 0 184.5 0 -0.2 2.5 c-0.2 1.4 -1 10.6 -1.8 20.5 -1.8 20.1 -3.9 44.1 -6 68 -0.8 8.8 -2.1 23.9 -2.9 33.5 -0.9 9.6 -2 22.2 -2.6 28 -0.5 5.8 -1.2 13.2 -1.5 16.5 -0.3 3.3 -1 11 -1.5 17 -1.2 12.7 -3.3 36.3 -5.5 62 -0.8 9.9 -1.7 20 -2 22.5 -0.3 2.5 -1.4 15.1 -2.5 28 -1.2 12.9 -2.3 25.5 -2.5 28 -0.5 4.5 -1.3 14 -4 44 -0.8 9.1 -2.1 24.4 -3 34 -0.8 9.6 -2.2 24.9 -3 34 -0.8 9.1 -2 21.9 -2.5 28.5 -0.6 6.6 -1.2 13.8 -1.5 16 -0.2 2.2 -1.3 14.6 -2.4 27.5 -1.2 12.9 -2.3 25.5 -2.6 28 -0.3 2.5 -1.2 12.6 -2 22.5 -2.2 25.7 -4.3 49.3 -5.5 62 -0.5 6.1 -1.2 13.7 -1.5 17 -0.3 3.3 -1 10.7 -1.5 16.5 -0.6 5.8 -1.7 18.4 -2.5 28 -0.9 9.6 -2.2 24.7 -3 33.5 -0.8 8.8 -2.1 23.9 -2.9 33.5 -0.9 9.6 -2 21.7 -2.5 26.8 l-0.8 9.3 -0.9 0.8 c-0.5 0.5 -67.3 19.2 -148.4 41.6 -81.1 22.5 -148.1 41 -148.7 41.3 l-1.3 0.4 0 -58.5z m0 -381.7 l0 -205 -80 0 -80 0 0 1.7 c0 1.9 3.3 38.9 4.9 55.8 0.6 5.5 2 21.7 3.2 36 1.1 14.3 7.6 83.8 14.3 154.4 l12.1 128.4 12.5 3.4 c6.9 1.8 34.8 9.4 62 16.8 27.2 7.3 49.8 13.4 50.3 13.4 l0.7 0.1 0 -205z"/>
 </g>
 <g fill="#f5fcf9">
  <path d="M338.4 1049.1 c-62.8 -17.5 -114.8 -32 -115.7 -32.4 l-1.5 -0.6 -0.6 -4.3 c-0.7 -5.4 -13.6 -149.1 -21.6 -240.8 -3.3 -38.2 -6.7 -76.7 -7.5 -85.5 -7.4 -81.2 -21.5 -244.8 -21.2 -245.1 0.5 -0.6 565.9 -0.5 566.5 0.1 0.5 0.4 -8.3 102.7 -9.4 109.3 l-0.5 3.2 -216.4 0 -216.5 0 0 1.7 c0 1.9 3.3 38.9 4.9 55.8 0.6 5.5 2 21.7 3.2 36 1.1 14.3 7.6 83.8 14.3 154.4 l12.1 128.4 14 3.8 c7.7 2.1 35.7 9.6 62.1 16.7 l48.2 13 4.3 -0.9 c10.9 -2.5 120.3 -32.5 175.9 -48.3 33.8 -9.6 61.6 -17.3 61.8 -17.1 0.4 0.4 -9.8 119.8 -10.2 120.2 -0.3 0.3 -226.3 63 -229.6 63.7 l-2.5 0.5 -114.1 -31.8z"/>
 </g>
 <g fill="#000000">
  <path d="M116 85.5 l0 -85.5 68.5 0 68.5 0 0 27.5 0 27.5 -40.2 0.2 -40.3 0.3 -0.3 30.3 -0.2 30.2 40.5 0 40.5 0 0 27.5 0 27.5 -68.5 0 -68.5 0 0 -85.5z"/>
  <path d="M329.8 113.8 l-0.3 -57.3 -25.2 -0.3 -25.3 -0.2 0 -28 0 -28 79 0 79 0 0 28 0 28 -25.2 0.2 -25.3 0.3 -0.3 57.3 -0.2 57.2 -28 0 -28 0 -0.2 -57.2z"/>
  <path d="M463 85.5 l0 -85.5 29.6 0.2 29.6 0.3 18.3 30 c10.1 16.5 18.7 30.1 19.2 30.2 l0.8 0.2 18.4 -30.4 18.4 -30.5 29.4 0 29.3 0 0 85.5 0 85.5 -28 0 -28 0 0 -42 0 -42 -0.8 0 -0.9 0 -19.4 30 c-10.7 16.5 -19.6 30 -19.9 29.9 -0.3 0 -9.1 -13.3 -19.6 -29.6 l-19 -29.7 -1.2 -0.4 -1.2 -0.4 0 42.1 0 42.1 -27.5 0 -27.5 0 0 -85.5z"/>
  <path d="M686 85.5 l0 -85.5 28 0 28 0 0 58 0 58 40.5 0 40.5 0 0 27.5 0 27.5 -68.5 0 -68.5 0 0 -85.5z"/>
 </g>
<g>
</g>
</svg>